<svg width="50" height="50" viewBox="0 0 50 50" fill="none" xmlns="http://www.w3.org/2000/svg">
<circle cx="16" cy="18" r="4" fill="#363840"/>
<circle cx="34" cy="18" r="4" fill="#363840"/>
<path d="M33 30.5C33 32.4891 32.1571 34.3968 30.6569 35.8033C29.1566 37.2098 27.1217 38 25 38C22.8783 38 20.8434 37.2098 19.3431 35.8033C17.8429 34.3968 17 32.4891 17 30.5L25 30.5H33Z" fill="#363840"/>
<mask id="path-4-inside-1_73_1266" fill="white">
<path d="M0 5C0 2.23858 2.23858 0 5 0H15V15H0V5Z"/>
</mask>
<path d="M-2 5C-2 1.13401 1.13401 -2 5 -2H15V2H5C3.34315 2 2 3.34315 2 5H-2ZM15 15H0H15ZM-2 15V5C-2 1.13401 1.13401 -2 5 -2V2C3.34315 2 2 3.34315 2 5V15H-2ZM15 0V15V0Z" fill="#363840" mask="url(#path-4-inside-1_73_1266)"/>
<mask id="path-6-inside-2_73_1266" fill="white">
<path d="M45 0C47.7614 0 50 2.23858 50 5V15L35 15V0L45 0Z"/>
</mask>
<path d="M45 -2C48.866 -2 52 1.13401 52 5V15H48V5C48 3.34315 46.6569 2 45 2V-2ZM35 15V0V15ZM35 -2L45 -2C48.866 -2 52 1.13401 52 5H48C48 3.34315 46.6569 2 45 2L35 2V-2ZM50 15L35 15L50 15Z" fill="#363840" mask="url(#path-6-inside-2_73_1266)"/>
<mask id="path-8-inside-3_73_1266" fill="white">
<path d="M5 50C2.23858 50 0 47.7614 0 45L0 35H15L15 50H5Z"/>
</mask>
<path d="M5 52C1.13401 52 -2 48.866 -2 45L-2 35H2L2 45C2 46.6569 3.34315 48 5 48V52ZM15 35L15 50L15 35ZM15 52H5C1.13401 52 -2 48.866 -2 45H2C2 46.6569 3.34315 48 5 48H15V52ZM0 35H15H0Z" fill="#363840" mask="url(#path-8-inside-3_73_1266)"/>
<mask id="path-10-inside-4_73_1266" fill="white">
<path d="M50 45C50 47.7614 47.7614 50 45 50H35V35H50V45Z"/>
</mask>
<path d="M52 45C52 48.866 48.866 52 45 52H35V48H45C46.6569 48 48 46.6569 48 45H52ZM35 35H50H35ZM52 35V45C52 48.866 48.866 52 45 52V48C46.6569 48 48 46.6569 48 45V35H52ZM35 50V35V50Z" fill="#363840" mask="url(#path-10-inside-4_73_1266)"/>
</svg>
