<svg width="32" height="32" viewBox="0 0 32 32" fill="none" xmlns="http://www.w3.org/2000/svg">
<mask id="mask0_148_1169" style="mask-type:luminance" maskUnits="userSpaceOnUse" x="0" y="0" width="32" height="32">
<path d="M31.6107 13.0906H16.3624V19.2707H25.1396C24.3223 23.197 20.9002 25.4507 16.3624 25.4507C15.1064 25.4677 13.8594 25.2363 12.6931 24.77C11.5267 24.3037 10.4638 23.6115 9.56546 22.7333C8.6671 21.8551 7.95093 20.8081 7.45802 19.6524C6.96511 18.4966 6.70518 17.2549 6.69313 15.9984C6.73392 14.1969 7.27697 12.4425 8.26106 10.9332C9.24516 9.42386 10.6312 8.21953 12.2628 7.45598C13.8945 6.69243 15.7069 6.40002 17.4958 6.61172C19.2847 6.82341 20.9789 7.5308 22.3874 8.65412L27.1474 4.00083C24.148 1.41734 20.3204 -0.00195799 16.3624 0.00163766C14.2364 -0.0286602 12.1255 0.361711 10.1509 1.15031C8.17625 1.93891 6.37693 3.11017 4.85636 4.59677C3.33579 6.08337 2.12395 7.85598 1.29052 9.81268C0.457097 11.7694 0.0185169 13.8716 0 15.9984C0.0185169 18.1253 0.457097 20.2275 1.29052 22.1842C2.12395 24.1409 3.33579 25.9135 4.85636 27.4001C6.37693 28.8867 8.17625 30.0579 10.1509 30.8465C12.1255 31.6351 14.2364 32.0255 16.3624 31.9952C18.4596 32.0478 20.5451 31.6671 22.4886 30.8769C24.4322 30.0867 26.1918 28.904 27.6578 27.4027C29.1237 25.9014 30.2643 24.1137 31.0083 22.1515C31.7524 20.1893 32.0838 18.0946 31.982 15.9984C31.9684 15.0182 31.8438 14.0427 31.6107 13.0906Z" fill="white"/>
</mask>
<g mask="url(#mask0_148_1169)">
<path d="M-1.48712 25.4505V6.5459L11.1564 15.9982L-1.48712 25.4505Z" fill="#FBBC05"/>
</g>
<mask id="mask1_148_1169" style="mask-type:luminance" maskUnits="userSpaceOnUse" x="0" y="0" width="32" height="32">
<path d="M31.6107 13.0906H16.3624V19.2707H25.1396C24.3223 23.197 20.9002 25.4507 16.3624 25.4507C15.1064 25.4677 13.8594 25.2363 12.6931 24.77C11.5267 24.3037 10.4638 23.6115 9.56546 22.7333C8.6671 21.8551 7.95093 20.8081 7.45802 19.6524C6.96511 18.4966 6.70518 17.2549 6.69313 15.9984C6.73392 14.1969 7.27697 12.4425 8.26106 10.9332C9.24516 9.42386 10.6312 8.21953 12.2628 7.45598C13.8945 6.69243 15.7069 6.40002 17.4958 6.61172C19.2847 6.82341 20.9789 7.5308 22.3874 8.65412L27.1474 4.00083C24.148 1.41734 20.3204 -0.00195799 16.3624 0.00163766C14.2364 -0.0286602 12.1255 0.361711 10.1509 1.15031C8.17625 1.93891 6.37693 3.11017 4.85636 4.59677C3.33579 6.08337 2.12395 7.85598 1.29052 9.81268C0.457097 11.7694 0.0185169 13.8716 0 15.9984C0.0185169 18.1253 0.457097 20.2275 1.29052 22.1842C2.12395 24.1409 3.33579 25.9135 4.85636 27.4001C6.37693 28.8867 8.17625 30.0579 10.1509 30.8465C12.1255 31.6351 14.2364 32.0255 16.3624 31.9952C18.4596 32.0478 20.5451 31.6671 22.4886 30.8769C24.4322 30.0867 26.1918 28.904 27.6578 27.4027C29.1237 25.9014 30.2643 24.1137 31.0083 22.1515C31.7524 20.1893 32.0838 18.0946 31.982 15.9984C31.9684 15.0182 31.8438 14.0427 31.6107 13.0906Z" fill="white"/>
</mask>
<g mask="url(#mask1_148_1169)">
<path d="M-1.48712 6.54624L11.1564 15.9986L16.3624 11.555L34.2137 8.71114V-1.45215H-1.48712V6.54624Z" fill="#EA4335"/>
</g>
<mask id="mask2_148_1169" style="mask-type:luminance" maskUnits="userSpaceOnUse" x="0" y="0" width="32" height="32">
<path d="M31.6107 13.0906H16.3624V19.2707H25.1396C24.3223 23.197 20.9002 25.4507 16.3624 25.4507C15.1064 25.4677 13.8594 25.2363 12.6931 24.77C11.5267 24.3037 10.4638 23.6115 9.56546 22.7333C8.6671 21.8551 7.95093 20.8081 7.45802 19.6524C6.96511 18.4966 6.70518 17.2549 6.69313 15.9984C6.73392 14.1969 7.27697 12.4425 8.26106 10.9332C9.24516 9.42386 10.6312 8.21953 12.2628 7.45598C13.8945 6.69243 15.7069 6.40002 17.4958 6.61172C19.2847 6.82341 20.9789 7.5308 22.3874 8.65412L27.1474 4.00083C24.148 1.41734 20.3204 -0.00195799 16.3624 0.00163766C14.2364 -0.0286602 12.1255 0.361711 10.1509 1.15031C8.17625 1.93891 6.37693 3.11017 4.85636 4.59677C3.33579 6.08337 2.12395 7.85598 1.29052 9.81268C0.457097 11.7694 0.0185169 13.8716 0 15.9984C0.0185169 18.1253 0.457097 20.2275 1.29052 22.1842C2.12395 24.1409 3.33579 25.9135 4.85636 27.4001C6.37693 28.8867 8.17625 30.0579 10.1509 30.8465C12.1255 31.6351 14.2364 32.0255 16.3624 31.9952C18.4596 32.0478 20.5451 31.6671 22.4886 30.8769C24.4322 30.0867 26.1918 28.904 27.6578 27.4027C29.1237 25.9014 30.2643 24.1137 31.0083 22.1515C31.7524 20.1893 32.0838 18.0946 31.982 15.9984C31.9684 15.0182 31.8438 14.0427 31.6107 13.0906Z" fill="white"/>
</mask>
<g mask="url(#mask2_148_1169)">
<path d="M-1.48712 25.4509L20.8257 8.72714L26.7015 9.4541L34.2137 -1.45215V33.4493H-1.48712V25.4509Z" fill="#34A853"/>
</g>
<mask id="mask3_148_1169" style="mask-type:luminance" maskUnits="userSpaceOnUse" x="0" y="0" width="32" height="32">
<path d="M31.6107 13.0906H16.3624V19.2707H25.1396C24.3223 23.197 20.9002 25.4507 16.3624 25.4507C15.1064 25.4677 13.8594 25.2363 12.6931 24.77C11.5267 24.3037 10.4638 23.6115 9.56546 22.7333C8.6671 21.8551 7.95093 20.8081 7.45802 19.6524C6.96511 18.4966 6.70518 17.2549 6.69313 15.9984C6.73392 14.1969 7.27697 12.4425 8.26106 10.9332C9.24516 9.42386 10.6312 8.21953 12.2628 7.45598C13.8945 6.69243 15.7069 6.40002 17.4958 6.61172C19.2847 6.82341 20.9789 7.5308 22.3874 8.65412L27.1474 4.00083C24.148 1.41734 20.3204 -0.00195799 16.3624 0.00163766C14.2364 -0.0286602 12.1255 0.361711 10.1509 1.15031C8.17625 1.93891 6.37693 3.11017 4.85636 4.59677C3.33579 6.08337 2.12395 7.85598 1.29052 9.81268C0.457097 11.7694 0.0185169 13.8716 0 15.9984C0.0185169 18.1253 0.457097 20.2275 1.29052 22.1842C2.12395 24.1409 3.33579 25.9135 4.85636 27.4001C6.37693 28.8867 8.17625 30.0579 10.1509 30.8465C12.1255 31.6351 14.2364 32.0255 16.3624 31.9952C18.4596 32.0478 20.5451 31.6671 22.4886 30.8769C24.4322 30.0867 26.1918 28.904 27.6578 27.4027C29.1237 25.9014 30.2643 24.1137 31.0083 22.1515C31.7524 20.1893 32.0838 18.0946 31.982 15.9984C31.9684 15.0182 31.8438 14.0427 31.6107 13.0906Z" fill="white"/>
</mask>
<g mask="url(#mask3_148_1169)">
<path d="M34.2137 33.4489L11.1564 15.9982L8.18207 13.8173L34.2137 6.5459V33.4489Z" fill="#4285F4"/>
</g>
</svg>
